<?xml version="1.0" encoding="UTF-8"?><svg id="a" xmlns="http://www.w3.org/2000/svg" xmlns:xlink="http://www.w3.org/1999/xlink" viewBox="0 0 368.9 491.86"><defs><linearGradient id="b" x1="813.79" y1="1464.74" x2="813.79" y2="1513.92" gradientTransform="translate(-387.74 -868.49) scale(.7)" gradientUnits="userSpaceOnUse"><stop offset=".42" stop-color="#fff"/><stop offset="1" stop-color="#98aeba"/></linearGradient><linearGradient id="c" x1="794.66" y1="1399.15" x2="832.91" y2="1399.15" gradientTransform="translate(-387.74 -868.49) scale(.7)" gradientUnits="userSpaceOnUse"><stop offset="0" stop-color="#a46e08"/><stop offset=".43" stop-color="#d2aa41"/><stop offset=".57" stop-color="#d2aa41"/><stop offset="1" stop-color="#a46e08"/></linearGradient><linearGradient id="d" x1="835.65" x2="873.9" xlink:href="#c"/><linearGradient id="e" x1="753.8" x2="792.06" xlink:href="#c"/><linearGradient id="f" x1="813.41" y1="1516.65" x2="812.78" y2="1542.73" gradientTransform="translate(-387.74 -868.49) scale(.7)" gradientUnits="userSpaceOnUse"><stop offset="0" stop-color="#cca139"/><stop offset="1" stop-color="#a56f09"/></linearGradient><linearGradient id="g" x1="636.18" y1="1337.66" x2="718.65" y2="1332.63" gradientTransform="translate(-387.74 -868.49) scale(.7)" gradientUnits="userSpaceOnUse"><stop offset="0" stop-color="#a81c20"/><stop offset=".86" stop-color="#ed1c24"/></linearGradient><linearGradient id="h" x1="557.31" y1="1361.17" x2="671.67" y2="1378.04" xlink:href="#g"/><linearGradient id="i" x1="560.82" y1="1415.93" x2="632.97" y2="1419.86" xlink:href="#g"/><linearGradient id="j" x1="991.39" y1="1337.66" x2="908.92" y2="1332.63" xlink:href="#g"/><linearGradient id="k" x1="1070.23" y1="1361.04" x2="955.46" y2="1378.45" xlink:href="#g"/><linearGradient id="l" x1="1066.75" y1="1415.93" x2="994.6" y2="1419.86" xlink:href="#g"/><linearGradient id="m" x1="623.17" y1="1285.13" x2="1004.4" y2="1285.13" gradientTransform="translate(-387.74 -868.49) scale(.7)" gradientUnits="userSpaceOnUse"><stop offset="0" stop-color="#bacad3"/><stop offset=".08" stop-color="#fff"/><stop offset=".92" stop-color="#fff"/><stop offset="1" stop-color="#bacad3"/></linearGradient><linearGradient id="n" x1="578.72" y1="1311.46" x2="728.38" y2="1356.7" gradientTransform="translate(-387.74 -868.49) scale(.7)" gradientUnits="userSpaceOnUse"><stop offset=".5" stop-color="#fff"/><stop offset=".75" stop-color="#bacad3"/></linearGradient><linearGradient id="o" x1="1048.85" y1="1311.46" x2="899.19" y2="1356.7" xlink:href="#n"/><linearGradient id="p" x1="1057.76" y1="1393.9" x2="953.56" y2="1398.8" xlink:href="#n"/><linearGradient id="q" x1="569.81" y1="1393.9" x2="674.01" y2="1398.8" xlink:href="#n"/><linearGradient id="r" x1="987.57" y1="1766.83" x2="991.83" y2="1684.59" gradientTransform="translate(-387.74 -868.49) scale(.7)" gradientUnits="userSpaceOnUse"><stop offset="0" stop-color="#ffe800"/><stop offset="1" stop-color="#f15d22"/></linearGradient><linearGradient id="s" x1="961.73" y1="1752.24" x2="954.5" y2="1676.42" xlink:href="#r"/><linearGradient id="t" x1="1009.74" y1="1772.3" x2="1035.59" y2="1686.93" xlink:href="#r"/><linearGradient id="u" x1="985.22" y1="1803.45" x2="1060.31" y2="1728.28" xlink:href="#r"/><linearGradient id="v" x1="965.67" y1="1801.39" x2="915.5" y2="1719.38" xlink:href="#r"/><linearGradient id="w" x1="974.91" y1="1799.1" x2="981.11" y2="1666.44" xlink:href="#r"/><linearGradient id="x" x1="623.17" y1="1884.81" x2="1004.4" y2="1884.81" xlink:href="#m"/><linearGradient id="y" x1="578.72" y1="1858.48" x2="728.38" y2="1813.24" xlink:href="#n"/><linearGradient id="z" x1="1048.85" y1="1858.48" x2="899.19" y2="1813.24" xlink:href="#n"/><linearGradient id="aa" x1="1070.63" y1="1806.59" x2="978.4" y2="1804.59" xlink:href="#g"/><linearGradient id="ab" x1="991.39" y1="1832.28" x2="908.92" y2="1837.31" xlink:href="#g"/><linearGradient id="ac" x1="636.18" y1="1832.28" x2="718.65" y2="1837.31" xlink:href="#g"/><linearGradient id="ad" x1="556.95" y1="1806.59" x2="649.16" y2="1804.59" xlink:href="#g"/><linearGradient id="ae" x1="814.2" y1="1804.01" x2="813.35" y2="1579.5" gradientTransform="translate(-387.74 -868.49) scale(.7)" gradientUnits="userSpaceOnUse"><stop offset=".1" stop-color="#005d97"/><stop offset=".41" stop-color="#009edb"/></linearGradient><radialGradient id="af" cx="813.79" cy="1629.25" fx="813.79" fy="1629.25" r="114.59" gradientTransform="translate(-387.74 -874.54) scale(.7 .72)" gradientUnits="userSpaceOnUse"><stop offset=".85" stop-color="#fff"/><stop offset="1" stop-color="#b3c5ce"/></radialGradient><linearGradient id="ag" x1="636.24" y1="1739.2" x2="717.39" y2="1739.2" gradientTransform="translate(-387.74 -868.49) scale(.7)" gradientUnits="userSpaceOnUse"><stop offset="0" stop-color="#8ca4b0"/><stop offset="1" stop-color="#b7c8d1"/></linearGradient><linearGradient id="ah" x1="648.56" y1="1788.07" x2="595.37" y2="1479.09" gradientTransform="translate(-387.74 -868.49) scale(.7)" gradientUnits="userSpaceOnUse"><stop offset="0" stop-color="#89a1ae"/><stop offset="1" stop-color="#f2f5f7"/></linearGradient><linearGradient id="ai" x1="620.24" y1="1598.04" x2="627.79" y2="1480.13" xlink:href="#ah"/><linearGradient id="aj" x1="1005.31" y1="1589.57" x2="977.92" y2="1478.13" gradientTransform="translate(-387.74 -868.49) scale(.7)" gradientUnits="userSpaceOnUse"><stop offset="0" stop-color="#a7710b"/><stop offset=".9" stop-color="#cb9f38"/></linearGradient><linearGradient id="ak" x1="964.67" y1="1713.24" x2="1039.37" y2="1476.76" xlink:href="#aj"/></defs><path d="M196.54,239.11c-5.65-.81-11.37-1.05-17.06-.72-.61-2.98-1.1-6.05-1.1-9.29,0-3.46.22-6.91,1.2-9.56,12.23,1.03,17.95,4.95,17.95,13.52,0,2.1-.39,4.13-.98,6.05M59.39,392.39c-1.42-4.47-2-8.83-2-13.66,0-3.94.6-7.81,1.87-11.28,2.97,2.85,6.16,5.23,10.04,7.34,7.36-2.37,10.38-.94,18.88-2.62,6.39-1.27,10.68-5.39,13.18-5.39,2.31,0,2.99,2.96,3.84,5.32,1.39,3.86,4.57,5.74,8.38,5.74,2,0,3.91-.46,5.81-1.08,15.51,18.68,38.9,30.58,65.07,30.58,29.54,0,55.53-15.16,70.65-38.11-.12,7.33,2.9,14.92,9.24,19.67-.2,0-.4,0-.6,0-10.88,0-21.81,4.12-21.81,13.34,0,1,.22,2,.49,2.96l8.04,29.58c-21.93,2.2-43.97,3.31-66.01,3.3-22.04,0-44.08-1.1-66.01-3.3l8.04-29.58c.26-.97.49-1.96.49-2.96,0-9.22-10.92-13.34-21.81-13.34-11.51,0-21.83,3.55-32.17,8.06-4.49-1.57-9.02-3.13-13.6-4.55M76.98,339.49c10.37-13.64,23.78-28.7,24.15-54.12.16-11.14-5.75-19.25-10.04-23.27,1.85-2.87,4.71-5.17,8.71-7.08-4.23-.57-6.44-2.13-6.44-4.06,0-1.27,1.31-2.51,3.74-2.51,2.69,0,5.46,1.17,7.82,2.74-.16-8.62-4.11-14.17-12.99-15.12-.41-1.3-.74-2.8-.77-4.34-7.58.6-14.05.49-19.97-.31-9.98-20.92-6.18-40.62-8.68-68.7-5.12,4.63-10,10.52-11.29,15.65-.4-2.07-.85-4.66-1.54-7.77-5.34,5.89-7.25,13.01-7.64,19.9-.57-1.75-1.31-3.45-2.2-5.05-3.96,6.59-5.39,13.31-5.23,18.88-.53-1.17-1.25-2.41-2.09-3.74-.97,2.16-1.74,4.92-2.13,7.32-4.97-12.83-8.8-28.18-10.73-44.85-6.01,7.01-9.35,15.68-8.92,25.04-.68-1.15-1.52-2.78-2.3-4.04-4.53,8.47-6.03,16.58-4.44,25.76-3.32,3.65-3.78,11.99-1.88,17.23-1.11,2.28-2.1,5.68-2.1,8.94,0,3.07.7,6.27,2.15,8.82-.65,1.77-.81,3.53-.81,5.45,0,3.29.78,6.58,2.79,9.49-.6,1.32-.75,3.44-.75,4.97,0,3.08,1.49,5.97,3.6,8.62-.5,4.7.42,9.53,3.88,12.56.37,4.88,2.35,8.26,4.69,10.82.37,3.33,2.44,6.95,5.52,8.4.72,3.83,4.27,6.61,7.96,7.96,2.03,5.04,7.34,7.15,12.94,7.1-11.12,20.34-23.89,39.49-41.97,61.45,8.87-3.19,18.62-4.45,27.21-4.45,6.15,0,11.56.8,17.23,2.09.53,2.96.3,6.17-.51,9.05-5.82-1.17-11.71-1.91-17.65-1.93-9.62-.04-26.28,1.84-26.28,14.52,0,2.04.66,3.7,1.39,5.34l22.74,51.17c2.37,5.33,7.95,7.14,13.98,7.2,3.31.03,6.31-.67,9.29-1.88l-.67,3.61c-1.77,9.45,9.1,14.08,32.77,17.7,34.77,5.33,69.79,7.8,104.96,7.8s70.19-2.47,104.97-7.8c23.67-3.63,34.54-8.25,32.77-17.7l-.67-3.61c2.97,1.21,5.97,1.91,9.29,1.88,6.03-.05,11.61-1.87,13.98-7.2l22.73-51.17c.73-1.64,1.39-3.3,1.39-5.34,0-10.94-12.4-13.84-21.98-14.4,6.65-4.88,10.4-12.38,10.36-22.88-.02-5.13-1.05-10.83-3.06-16.67-1.58,3.7-3.62,6.83-6.12,9.4-2.2-10.62-8.1-14.13-7.92-25.98.09-5.98,2.11-10.84,6.06-14.58,4.15-3.92,9.33-11.33,9.78-19.67,5.36-5.23,6.8-13.09,6.62-20.84,3.19-4.75,4.52-9.01,4.52-13.62,0-2-.14-4.21-.62-6.4,1.1-2.89,1.88-6.53,1.88-9.99,0-3.03-.84-5.49-1.7-7.46,1.2-3.45,2.17-7.54,2.17-12.16,0-3.77-.86-7.1-2.5-9.55.74-3.04,1.12-6.16,1.14-9.29.02-4.13-.8-8.54-2.32-13.17-1.15.95-2.18,1.88-3.26,3.25.14-7.91-.48-13.26-5.35-19.89-1.64,1.97-3.27,3.94-4.14,6.49-.48-9.95-3.22-16.37-7.06-20.8-9.43,14.79-11.34,32.45-11.44,49.6-.66.56-1.91,1.37-2.72,2.33.03-4.27-.8-8.65-2.41-12.52-1.05.71-2,1.7-2.77,2.59.4-6.94-1.48-13.97-4.57-19.03-.99,1.23-2.13,3.13-2.58,4.47-.54-5.69-2.99-11.89-8.51-16.88-.88,1.98-1.53,3.71-1.9,5.43-4.06-8.1-9.63-13.42-15.63-16.42,6.04,27.87,5.31,48.36.36,64.9-14.99,0-25.46,6.3-30.32,15.93,3.04.03,5.89.06,8.74.48-1.84.9-3.43,1.56-5.39,2.1,1.58,1.49,4.04,3.01,6.08,3.9-2.14.47-4.83.63-7.55.76,2.12,5.89,6.91,9.89,12.51,10.63-5.99,4.87-8.9,12.05-8.9,20.13,0,15.13,11.11,21.36,11.22,35.74.07,9.65-7.11,16.77-12.08,21.41.94-5.1,1.42-10.28,1.42-15.47,0-28.39-14.01-53.52-35.48-68.85-.02-6.08-1.19-11.22-1.19-16.4,0-13.74,3.18-25.04,11.29-35,1.45,2.26,2.08,5.35,2.08,8.48,0,6.83-3.63,10.37-3.63,16.96,0,3.84,2.85,6.86,5.86,6.86,1.28,0,2.3-.19,3.14-.64-1.07-3.59-1.56-7.95-1.56-11.79,0-10.57,2.36-13.79,2.36-25.21,0-17.83-7.55-32.26-21.31-38.12v-19.45l-3.84-11.53v-36.9l3.84-7.69v-14.36h-92.22v14.36l3.84,7.69v36.9l-3.84,11.53v10.79c-.13,0-.26,0-.39,0-5.32,0-5.62-1.86-10.23-1.86s-9.72,2.59-13.28,5.31c-5.1,3.91-3.15,15.43-5.16,24.75-1.3,6.03-3.16,10.47-3.16,19.69,0,1.79.2,3.4.54,4.9-5.72,4.83-11.8,8.92-18.34,12.58-.59.33-1.4.71-1.4,1.51,0,.5.5.84,1.03.84.45,0,.85-.08,1.28-.22,6.95-2.27,13.31-5.65,18.97-10.2.45,1,.94,1.96,1.47,2.92-5.53,5.08-11.68,9.59-17.88,13.8-.77.52-1.59,1.03-1.59,2.07,0,.77.68,1.3,1.45,1.3.62,0,1.23-.22,1.79-.46,6.89-2.94,13.33-6.8,19.13-11.54.69,1.29,1.31,2.61,1.86,3.97,4.4,11.03,5.35,25.84,17.64,25.84,4.3,0,10.07-2.5,10.07-4.96,0-1.78-1.48-1.93-1.79-3.04-.47-1.7-.87-3.51-2.46-3.51-2.1,0-1.98,2.2-4.44,2.2s-4.21-2.59-4.21-8.24c0-4.61.46-8.6.46-15.98,3.46-2.25,6.59-4.74,9.32-7.51,5.3,9.34,6.33,21.17,6.33,29.91,0,4.38-.42,9.05-.73,13.72-26.6,14.24-44.7,42.29-44.7,74.57,0,2.68.13,5.34.38,7.96-4.89,1.05-7.42,4.47-7.42,9.35s2.98,7.73,3.15,11.51c.08,1.82-1.63,3.14-3.39,3.1-6.65-.16-11.22-9.57-15.65-15.21M3.47,123.88c-.5,1.14-.76,2.38-.75,3.62.04,12.52,18.59,14.71,27.97,14.92,10.76.24,21-1.84,31.4-4.42l-1.36-11.52c2.96.66,5.93,1.05,9.06,1.05,7.4,0,19.84-2.07,20.21-12.01.01-.3,0-.59-.04-.89l-1.99-14.25c5.56,1.52,11.18,2.57,17.2,2.59,8.46.03,21.52-2.69,21.81-13.34.03-1.19-.17-2.26-.44-3.21l-8.08-29.33c21.93-2.2,43.96-3.31,66-3.3,22.08,0,44.08,1.1,66,3.3l-8.07,29.33c-.26.96-.47,2.03-.44,3.21.28,10.66,13.35,13.37,21.81,13.34,6.02-.02,11.64-1.07,17.2-2.59l-1.99,14.25c-.04.29-.06.59-.04.89.37,9.95,12.82,12.02,20.21,12.01,3.12,0,6.1-.39,9.06-1.05l-1.36,11.52c10.39,2.58,20.63,4.66,31.39,4.42,9.38-.21,27.93-2.4,27.97-14.92.01-1.25-.24-2.48-.75-3.62l-8.19-18.55c6.21-2.53,11.5-6.94,11.65-14.41.04-1.67-.39-3.17-.98-4.49l-23.14-52.02c-2.37-5.32-7.95-7.16-13.98-7.2-3.46-.02-6.38.74-9.3,1.93l.68-3.66c1.77-9.45-9.1-14.07-32.77-17.7C254.64,2.47,219.62,0,184.45,0s-70.19,2.47-104.97,7.8c-23.67,3.63-34.53,8.25-32.77,17.7l.69,3.66c-2.92-1.19-5.84-1.95-9.3-1.93-6.03.04-11.61,1.88-13.98,7.2L.98,86.44c-.59,1.32-1.02,2.82-.98,4.49.16,7.46,5.44,11.88,11.65,14.41l-8.19,18.55Z" style="fill-rule:evenodd;"/><path d="M161.39,161.4c.99,3.35,2.74,6.64,5.05,9.48.94,1.17,1.26,2.43,1.26,3.87,0,2.72-2.8,4.96-6.31,7.01v14.22h46.11v-34.58h-46.11Z" style="fill:url(#b);"/><path d="M194.05,73.01v3.84h-1.92v-3.84h-3.84v3.84h-1.92v-3.84h-3.84v3.84h-1.92v-3.84h-3.84v3.84h-1.92v-3.84h-3.84v7.69h26.9v-7.69h-3.84ZM171,82.62l3.84,7.69h19.21l3.84-7.69h-26.9ZM174.84,126.81h19.21v-34.58h-19.21v34.58ZM183.49,108.56v-6.98c-.92-.53-1.23-1.7-.71-2.62.34-.59.98-.96,1.66-.96,1.06,0,1.92.86,1.92,1.92,0,.69-.37,1.32-.96,1.66v6.98h3.14c.53-.92,1.71-1.23,2.63-.7.92.53,1.23,1.71.7,2.63-.53.92-1.71,1.23-2.63.7-.29-.17-.53-.41-.7-.7h-3.14v6.98c.92.53,1.23,1.71.7,2.62s-1.71,1.23-2.62.7-1.23-1.71-.7-2.62c.17-.29.41-.54.7-.7v-6.98h-3.14c-.53.92-1.7,1.23-2.62.71-.6-.34-.96-.98-.96-1.67,0-1.06.86-1.92,1.93-1.92.68,0,1.32.37,1.66.96h3.14ZM174.84,128.73l-3.84,11.53h26.9l-3.84-11.53h-19.21ZM171,157.55h26.9v-15.37h-26.9v15.37Z" style="fill:url(#c);"/><path d="M222.87,73.01v3.84h-1.92v-3.84h-3.84v3.84h-1.92v-3.84h-3.84v3.84h-1.92v-3.84h-3.84v3.84h-1.92v-3.84h-3.84v7.69h26.9v-7.69h-3.84ZM199.82,82.62l3.84,7.69h19.21l3.84-7.69h-26.9ZM203.66,126.81h19.21v-34.58h-19.21v34.58ZM212.31,108.56v-6.98c-.92-.53-1.23-1.7-.71-2.62.34-.59.98-.96,1.66-.96,1.06,0,1.92.86,1.92,1.92,0,.69-.37,1.32-.96,1.66v6.98h3.14c.53-.92,1.71-1.23,2.63-.7.92.53,1.23,1.71.7,2.63-.53.92-1.71,1.23-2.63.7-.29-.17-.53-.41-.7-.7h-3.14v6.98c.92.53,1.23,1.71.7,2.62s-1.71,1.23-2.62.7-1.23-1.71-.7-2.62c.17-.29.41-.54.7-.7v-6.98h-3.14c-.53.92-1.7,1.23-2.62.71-.6-.34-.96-.98-.96-1.67,0-1.06.86-1.92,1.93-1.92.68,0,1.32.37,1.66.96h3.14ZM203.66,128.73l-3.84,11.53h26.9l-3.84-11.53h-19.21ZM199.82,157.55h26.9v-15.37h-26.9v15.37Z" style="fill:url(#d);"/><path d="M165.33,73.01v3.84h-1.92v-3.84h-3.84v3.84h-1.92v-3.84h-3.84v3.84h-1.92v-3.84h-3.84v3.84h-1.92v-3.84h-3.84v7.69h26.9v-7.69h-3.84ZM142.27,82.62l3.84,7.69h19.21l3.84-7.69h-26.9ZM146.11,126.81h19.21v-34.58h-19.21v34.58ZM154.76,108.56v-6.98c-.92-.53-1.23-1.7-.71-2.62.34-.59.98-.96,1.66-.96,1.06,0,1.92.86,1.92,1.92,0,.69-.37,1.32-.96,1.66v6.98h3.14c.53-.92,1.71-1.23,2.63-.7.92.53,1.23,1.71.7,2.63s-1.71,1.23-2.63.7c-.29-.17-.53-.41-.7-.7h-3.14v6.98c.92.53,1.24,1.71.71,2.62-.53.92-1.71,1.24-2.62.71-.92-.53-1.24-1.71-.71-2.62.17-.29.41-.54.71-.71v-6.98h-3.14c-.53.92-1.7,1.23-2.62.71-.6-.34-.96-.98-.96-1.67,0-1.06.86-1.92,1.92-1.92.69,0,1.32.37,1.66.96h3.14ZM146.11,128.73l-3.84,11.53h26.9l-3.84-11.53h-19.21ZM142.27,157.55h26.9v-15.37h-26.9v15.37Z" style="fill:url(#e);"/><path d="M181.37,197.9c0,6.11-.2,13.1-1.04,17.87,2.09.22,4.15.5,6.21.93.8-5.62.97-12.81.97-18.8h-6.15Z" style="fill:url(#f);"/><path d="M281.24,248.09c-3.14.48-6.4-.07-9.18-1.6,2.25-.56,4.56-1.68,6.48-2.46,1.77.84,2.97,2.36,2.7,4.06" style="fill:#ec1c24; fill-rule:evenodd;"/><path d="M59.57,72.05c0,2.6,4.14,4.76,11.52,4.71,10.09-.06,16.45-2.88,27.71-2.88,8.45,0,15.85,1.59,21.76,5.68l-6.01-22.1c-32.95,3-54.98,7.61-54.98,14.59" style="fill:url(#g);"/><path d="M3.84,90.95c-.02,7.63,9.07,13.48,25.19,13.48,14.04,0,23.02-3.89,36.18-3.6,7.69.17,14.36,2.07,19.44,5.58l-.79-7.2c-19.61-6.83-37.14-19.5-57.3-19.62h-.36c-13.85,0-22.35,4.87-22.36,11.36" style="fill:url(#h);"/><path d="M6.57,127.52c0,5.63,8.54,10.75,24.21,11.07,9.06.19,18.23-1.27,27.09-3.49l-1.14-9.63c-8.79-2.89-16.02-7.34-28.35-7.34-13.92,0-21.81,4.74-21.81,9.4" style="fill:url(#i);"/><path d="M248.33,79.56c5.92-4.09,13.32-5.68,21.76-5.68,11.26,0,17.62,2.81,27.71,2.88,7.38.05,11.52-2.11,11.52-4.71,0-6.98-22.03-11.59-54.98-14.59l-6.01,22.1Z" style="fill:url(#j);"/><path d="M342.33,79.58c-20.15.12-37.69,12.79-57.29,19.62l-1.37,7.97c5.07-4.27,11.55-6.17,20.01-6.34,13.17-.27,22.14,3.6,36.18,3.6,16.11,0,25.2-5.86,25.19-13.48-.01-6.49-8.52-11.37-22.37-11.37h-.36Z" style="fill:url(#k);"/><path d="M312.17,125.46l-1.14,9.63c8.87,2.22,18.03,3.68,27.09,3.49,15.67-.32,24.21-5.44,24.21-11.07,0-4.66-7.89-9.4-21.81-9.4-12.32,0-19.56,4.45-28.35,7.34" style="fill:url(#l);"/><path d="M80.06,11.6c-19.53,2.99-30.75,6.91-29.56,13.31l7.75,41.47c4.89-4.96,18.23-7.67,29.92-9.4,31.49-4.66,63.42-7.02,96.27-7.02s64.79,2.36,96.27,7.02c11.69,1.73,25.02,4.44,29.92,9.4l7.75-41.47c1.2-6.4-10.03-10.31-29.56-13.31-33.97-5.21-69.1-7.75-104.38-7.75s-70.41,2.54-104.38,7.75" style="fill:url(#m);"/><path d="M27.53,36.21l-19.27,43.29c4.81-2.8,10.92-3.89,17.62-3.82,29.83.29,50.66,23.46,79.31,23.46,11.54,0,17.94-4.5,17.94-9.48,0-6.15-10.31-11.94-23.82-11.94-12.45,0-18.47,2.78-28.53,2.78-8.53,0-13.93-2.54-14.8-7.09l-7.66-39.67c-3.01-1.54-6.17-2.68-10.18-2.68-5.4,0-9.31,2.25-10.59,5.14" style="fill:url(#n);"/><path d="M320.59,33.75l-7.66,39.67c-.88,4.54-6.28,7.09-14.81,7.09-10.05,0-16.08-2.78-28.53-2.78-13.51,0-23.82,5.79-23.82,11.94,0,4.98,6.4,9.48,17.94,9.48,28.65,0,49.48-23.18,79.31-23.46,6.7-.06,12.81,1.02,17.62,3.82l-19.27-43.29c-1.29-2.89-5.19-5.14-10.59-5.14-4.02,0-7.17,1.14-10.18,2.68" style="fill:url(#o);"/><path d="M282.75,115.55c0,4.1,5.43,8.15,16.35,8.15,15.05,0,23.84-9.35,42.4-9.35,6.68,0,12.34,1.11,16.94,3.27l-4.85-11.04c-4.29,1.26-9.05,1.8-14.74,1.72-11.86-.17-19.78-3.69-35.1-3.69-11.96,0-21,5.31-21,10.94" style="fill:url(#p);"/><path d="M30.05,108.3c-5.69.08-10.46-.45-14.74-1.72l-4.85,11.04c4.59-2.16,10.25-3.27,16.94-3.27,18.56,0,27.35,9.35,42.4,9.35,10.92,0,16.35-4.05,16.35-8.15,0-5.63-9.03-10.94-20.99-10.94-15.32,0-23.24,3.53-35.1,3.69" style="fill:url(#q);"/><path d="M291.23,29.98c-.35-.81-.72-1.4-1.12-1.78-.4-.39-.87-.62-1.41-.71l-.7-.11.38-2.32,10.38,1.68-.38,2.32-.83-.13c-.52-.08-.88-.08-1.1,0-.22.08-.36.25-.4.51-.02.12-.01.26.02.41.04.15.1.34.21.57l2.05,4.35,3.64-3.7c.13-.12.24-.24.3-.35.07-.1.11-.21.13-.33.04-.23-.06-.47-.25-.6-.21-.14-.56-.26-1.06-.34l-.87-.14.36-2.26,8.48,1.37-.38,2.32-.65-.1c-.51-.08-.97-.04-1.36.13-.4.17-.93.61-1.59,1.3l-5.84,6.17-.61,3.79c-.12.77-.11,1.27.05,1.5.16.23.65.41,1.48.54l1.43.23-.38,2.32-11.11-1.79.37-2.32,1.42.23c.81.13,1.33.11,1.56-.05.23-.17.41-.64.53-1.41l.61-3.78-3.39-7.48ZM275.48,25.33l-.32-.04c-1.44-.19-2.53.08-3.27.82-.74.74-1.24,2.05-1.48,3.93l-2.45-.32,1-7.58,18.28,2.4-.99,7.58-2.47-.32c.25-1.9.12-3.3-.41-4.19-.52-.89-1.5-1.43-2.93-1.62l-.32-.04-1.66,12.66c-.1.78-.07,1.28.11,1.5.17.23.67.39,1.48.49l1.29.17-.3,2.33-10.85-1.42.31-2.33,1.27.17c.82.11,1.35.07,1.57-.1.23-.17.39-.65.49-1.42l1.66-12.66ZM267.86,22.05l-.25,2.33-1.17-.12c-.81-.09-1.32-.04-1.53.13-.21.17-.37.65-.45,1.44l-1.16,10.9c-.08.79-.04,1.29.14,1.51.26.32.66.37,1.47.45l1.17.13-.25,2.33-10.57-1.12.25-2.33,1.08.12c.82.09,1.34.04,1.56-.14.22-.18.37-.66.45-1.43l1.16-10.9c.08-.78.04-1.28-.14-1.5-.18-.22-.67-.37-1.49-.46l-1.08-.11.25-2.33,10.57,1.12ZM253.49,32.33c-.22,2.53-1.06,4.44-2.52,5.73-1.45,1.28-3.4,1.83-5.86,1.64-3.16-.24-5.61-1.36-7.35-3.35-1.74-2-2.49-4.52-2.26-7.58.23-2.93,1.34-5.28,3.34-7.05,2-1.78,4.4-2.56,7.2-2.34,1.02.08,1.97.3,2.82.67.86.36,1.72.91,2.6,1.65l.63-1.51,2.31.18-.59,7.8-2.48-.19c-.02-1.82-.43-3.25-1.23-4.28-.81-1.03-1.95-1.6-3.43-1.71-1.63-.12-2.96.45-4,1.72-1.04,1.27-1.65,3.1-1.83,5.48-.19,2.43.14,4.34.98,5.74.83,1.4,2.11,2.17,3.81,2.3,1.42.11,2.59-.28,3.53-1.18.95-.89,1.56-2.19,1.85-3.9l2.48.19ZM79.86,37.05c.39,2.51.03,4.57-1.08,6.16-1.1,1.59-2.87,2.59-5.3,2.99-3.13.52-5.77.02-7.94-1.5-2.17-1.52-3.5-3.79-4-6.82-.48-2.9.04-5.44,1.56-7.64,1.52-2.2,3.67-3.53,6.44-3.99,1.01-.17,1.98-.18,2.9-.03.93.15,1.89.47,2.92.98l.25-1.61,2.29-.38,1.28,7.72-2.45.41c-.45-1.77-1.2-3.06-2.21-3.87-1.02-.81-2.27-1.09-3.74-.84-1.61.27-2.77,1.14-3.47,2.62-.7,1.49-.86,3.4-.47,5.76.4,2.4,1.17,4.18,2.32,5.35,1.15,1.16,2.57,1.6,4.24,1.32,1.4-.23,2.45-.89,3.15-1.98.7-1.09.99-2.5.87-4.23l2.45-.41ZM90.95,25.29c-1.62.19-2.82,1.01-3.59,2.46-.77,1.45-1.01,3.36-.74,5.73.28,2.4.97,4.21,2.07,5.43,1.1,1.22,2.48,1.74,4.15,1.54,1.63-.19,2.83-1.02,3.6-2.47.76-1.45,1.01-3.37.73-5.75-.28-2.39-.97-4.19-2.06-5.41-1.09-1.22-2.48-1.73-4.15-1.53M93.08,42.95c-3.17.38-5.84-.25-8-1.88-2.16-1.63-3.42-3.95-3.78-6.96-.36-3.02.33-5.57,2.05-7.65,1.72-2.07,4.18-3.3,7.36-3.68,3.17-.38,5.83.24,7.99,1.86,2.16,1.62,3.42,3.94,3.78,6.96.36,3.01-.33,5.56-2.06,7.65-1.73,2.09-4.17,3.33-7.34,3.7M101.53,24.37l-.75.08-.24-2.34,10.46-1.08.24,2.34-1.25.13c-.6.06-1.01.15-1.24.26-.22.11-.32.28-.3.5.02.16.06.33.11.52.06.19.14.41.25.65l4.42,9.79,2.56-10.63c.04-.16.07-.33.08-.51.02-.17.01-.34,0-.51-.03-.26-.12-.43-.28-.5-.16-.07-.56-.09-1.2-.04l-1.37.08-.24-2.28,8.75-.9.24,2.34-.84.08c-.53.05-.93.22-1.21.51-.28.28-.52.86-.74,1.73l-3.75,15.3-4.59.47-6.67-14.34c-.3-.67-.64-1.14-1.02-1.38-.38-.25-.86-.35-1.45-.29M141.86,18.52l.52,7.42-2.37.17c-.27-2.03-.74-3.35-1.41-3.99-.67-.63-2.04-.87-4.12-.73l-3.77.26.39,5.62,1.06-.07c1.03-.07,1.7-.32,2.01-.72.3-.41.42-1.28.34-2.62l2.34-.16.64,9.14-2.34.16-.06-.88c-.07-1-.31-1.69-.71-2.06-.4-.37-1.08-.52-2.04-.45l-1.06.07.45,6.46,3.46-.24c2.14-.15,3.52-.62,4.14-1.42.63-.8.94-2.35.94-4.64l2.37-.17.56,8.02-18.91,1.32-.17-2.34,1.08-.08c.82-.06,1.32-.19,1.51-.41.19-.21.25-.71.2-1.49l-.76-10.94c-.06-.78-.19-1.26-.4-1.45-.21-.19-.73-.25-1.55-.19l-1.08.08-.16-2.34,18.91-1.32ZM150.6,33.18c.03.78.15,1.27.36,1.46.21.19.72.27,1.54.24l1.28-.05.1,2.35-9.04.37-.1-2.35.95-.04c.82-.03,1.33-.16,1.52-.36.19-.21.27-.7.24-1.49l-.45-10.96c-.03-.78-.15-1.27-.36-1.46-.21-.19-.72-.27-1.54-.24l-.95.04-.1-2.35,8.47-.34,8.52,13.38-.39-9.59c-.03-.78-.15-1.27-.36-1.46-.21-.19-.73-.27-1.56-.24l-1.28.05-.1-2.35,8.96-.36.1,2.35-.85.03c-.82.03-1.33.15-1.52.36-.19.21-.27.7-.24,1.49l.62,15.08-4.95.2-9.32-14.66.44,10.9ZM174.78,19.7h-.32c-1.45.02-2.5.44-3.13,1.27-.63.83-.94,2.2-.92,4.1l-2.46.02-.07-7.65,18.44-.17.07,7.65-2.49.02c-.02-1.92-.34-3.29-.99-4.1-.64-.81-1.69-1.21-3.13-1.19h-.32s.12,12.77.12,12.77c0,.78.11,1.27.31,1.47.2.2.71.3,1.53.29h1.3s.02,2.34.02,2.34l-10.94.1-.02-2.35h1.28c.83-.02,1.34-.12,1.54-.33.2-.2.3-.7.29-1.48l-.12-12.77ZM190.58,21.44c0-.78-.09-1.28-.29-1.48-.2-.2-.71-.31-1.53-.32h-1.09s.02-2.36.02-2.36l11.88.12c2.45.03,4.26.43,5.42,1.22,1.16.79,1.74,2,1.72,3.63,0,1.14-.41,2.08-1.19,2.83-.78.75-1.92,1.3-3.44,1.64,1.18.27,2.01.69,2.49,1.26.48.57.73,1.43.77,2.59l.04,2c0,.73.07,1.23.19,1.48.12.25.33.38.62.38.33,0,.57-.16.7-.5.13-.34.22-1.22.25-2.66l2.03.02c0,.1.02.22.02.35,0,.13,0,.32,0,.56-.02,1.65-.39,2.91-1.12,3.77-.72.86-1.77,1.28-3.14,1.27-1.46-.02-2.52-.39-3.18-1.13-.65-.73-.99-1.95-1.01-3.64v-1.96c-.02-.96-.25-1.67-.69-2.13-.44-.46-1.13-.69-2.08-.7l-2.77-.03-.04,4.78c0,.78.09,1.28.28,1.48.2.2.71.31,1.53.32h1.28s-.02,2.36-.02,2.36l-10.74-.11.02-2.35h1.09c.82.02,1.33-.08,1.54-.28.2-.2.31-.69.32-1.47l.11-10.97ZM195.24,25.35l1.72.02c1.95.02,3.25-.18,3.89-.59.65-.42.97-1.17.98-2.26,0-1-.29-1.71-.91-2.13-.62-.42-1.87-.64-3.77-.66l-1.86-.02-.06,5.64ZM211.26,22.16c-.44-.76-.88-1.31-1.32-1.64-.42-.33-.94-.52-1.48-.54l-.71-.03.1-2.35,10.5.47-.1,2.35-.84-.04c-.52-.02-.89.02-1.1.12-.21.1-.32.29-.33.56,0,.14.02.27.07.4.05.15.14.32.27.54l2.54,4.09,3.18-4.1c.11-.11.19-.24.26-.38.05-.11.08-.22.09-.34.02-.24-.11-.46-.32-.57-.22-.12-.59-.19-1.09-.22l-.88-.04.1-2.29,8.57.38-.1,2.35-.66-.03c-.52-.02-.97.07-1.34.29-.37.22-.85.71-1.43,1.48l-5.09,6.8-.17,3.83c-.03.78.04,1.28.23,1.49.19.21.7.33,1.53.37l1.45.06-.1,2.35-11.24-.5.1-2.35,1.44.06c.82.04,1.33-.04,1.54-.23.21-.19.33-.68.36-1.46l.17-3.83-4.23-7.05Z"/><path d="M302.15,360.22c0,4.22.57,9.28,2.26,13.47,6.37-7.31,8.88-17.43,8.88-28.95,0-10.55-2.21-19.84-5.89-28.87,2.37,21.02-5.25,30.17-5.25,44.36" style="fill:url(#r);"/><path d="M281.1,339.78c-.13,7.64,2.09,15.73,6.83,23.81-.19-10.45,2.96-16.64,2.89-30.09-.04-7.49-3.15-16.18-7.97-23.21,3.05,14.13-1.55,17.39-1.75,29.5" style="fill:url(#s);"/><path d="M327.2,340.85c0,4.87,1.41,10.96,1.41,15.96,0,6.5-1.2,13.47-6.65,20.76,12.33-8.85,14.53-19.91,14.53-29.14s-2.27-22.42,3.65-30.89c-9.14,6.37-12.94,14.81-12.94,23.3" style="fill:url(#t);"/><path d="M300.71,395.28c11.11-3.8,22.55-7.25,34.11-8.44,16.52-1.71,20.75-17.97,17.83-30.03-1.74,3.31-4.18,5.35-7.09,7.27-.42-8.05-3.08-14.62-7.4-21.65,5.26,37.48-26.53,39.07-37.45,52.85" style="fill:url(#u);"/><path d="M263.56,357.44c0,4.69,1.42,8.39,4.08,12.72-3.75-.87-6.48-3.6-7.61-8.32-3.84,12.78,3.17,25.66,16.06,28.37,6.09,1.28,12.33,3.58,18.17,6.05-8.92-21.18-23.3-24.02-23.3-45.33,0-3.84.53-8.03,2.15-12.34-7.03,5.78-9.55,12.31-9.55,18.85" style="fill:url(#v);"/><path d="M290.31,371.81c-5.95-9.71-11.45-18.43-11.45-31.77,0-3.36.4-6.76,1.38-10.54-4.66,6.34-7.02,13.77-7.02,21.13,0,20.25,13.92,23.74,23.85,45.83,2.68-4.58,7.65-8.68,13.08-11.9,12.81-7.58,16.09-18.14,16.09-27.36,0-12.99-5.1-27.64-3.06-42.63-4.53,7.06-6.66,13.97-7.06,20.87-.75,13.18.99,29.41-12.44,42.02-2.87-5.01-3.87-11.93-3.87-17.31,0-11.59,5.7-22.01,5.7-37.38,0-6.51-.45-12.62-4.09-19.6.63,31.74-13.55,39.12-11.11,68.62" style="fill:url(#w);"/><path d="M280.72,434.89c-31.49,4.66-63.42,7.02-96.27,7.02s-64.78-2.36-96.27-7.02c-11.69-1.73-25.02-4.44-29.92-9.4l-7.75,41.47c-1.2,6.4,10.03,10.32,29.56,13.31,33.97,5.21,69.1,7.75,104.38,7.75s70.42-2.54,104.38-7.75c19.52-2.99,30.75-6.91,29.56-13.31l-7.75-41.47c-4.89,4.96-18.23,7.66-29.92,9.4" style="fill:url(#x);"/><path d="M25.87,416.19c-6.7.06-12.81-1.02-17.62-3.82l19.27,43.29c1.29,2.89,5.19,5.14,10.59,5.14,4.01,0,7.17-1.14,10.18-2.68l7.66-39.67c.88-4.54,6.28-7.09,14.8-7.09,10.06,0,16.08,2.78,28.53,2.78,13.51,0,23.82-5.79,23.82-11.94,0-4.97-6.4-9.48-17.94-9.48-28.65,0-49.48,23.17-79.31,23.46" style="fill:url(#y);"/><path d="M245.78,402.21c0,6.15,10.31,11.94,23.82,11.94,12.45,0,18.47-2.78,28.53-2.78,8.53,0,13.93,2.54,14.81,7.09l7.66,39.67c3.01,1.54,6.17,2.68,10.18,2.68,5.4,0,9.31-2.25,10.59-5.14l19.27-43.29c-4.81,2.8-10.92,3.88-17.62,3.82-29.83-.29-50.66-23.46-79.31-23.46-11.54,0-17.94,4.5-17.94,9.48" style="fill:url(#z);"/><path d="M300.21,399.52c12.27,5.9,29.19,12.69,41.62,12.77,13.54.08,23.22-4.71,23.22-11.36,0-6.07-7.3-10.66-22.43-10.66-13.47,0-30.41,5.06-42.41,9.26" style="fill:url(#aa);"/><path d="M254.34,434.41c32.95-3,54.98-7.61,54.98-14.59,0-2.6-4.14-4.76-11.52-4.71-10.09.06-16.45,2.88-27.71,2.88-8.45,0-15.85-1.59-21.76-5.68l6.01,22.1Z" style="fill:url(#ab);"/><path d="M98.8,417.99c-11.26,0-17.62-2.81-27.71-2.88-7.38-.04-11.52,2.11-11.52,4.71,0,6.98,22.03,11.59,54.98,14.59l6.01-22.1c-5.92,4.09-13.32,5.68-21.76,5.68" style="fill:url(#ac);"/><path d="M3.84,400.92c0,6.65,9.68,11.44,23.22,11.36,12.43-.07,29.35-6.87,41.62-12.77-12-4.2-28.95-9.26-42.41-9.26-15.12,0-22.43,4.59-22.43,10.66" style="fill:url(#ad);"/><path d="M179.65,168.12h9.61v5.76h5.76v9.6h-5.76v5.76h-9.61v-5.76h-5.76v-9.6h5.76v-5.76Z" style="fill-rule:evenodd;"/><path d="M181.57,170.04h5.76v5.76h5.76v5.76h-5.76v5.76h-5.76v-5.76h-5.76v-5.76h5.76v-5.76Z" style="fill:#ec1c24; fill-rule:evenodd;"/><path d="M180.3,242.2c.75,3.42,1.43,6.77,1.43,10.16,0,1.53-.54,2.91-2.57,3.65-1.41.51-3.33.89-5.75,1.12l11.05,8.02,25.89-18.81c-8.13-2.75-16.83-4.25-25.89-4.25-1.39,0-2.77.04-4.15.11M239.27,304.98l25.86,18.79c0-.33.01-.65.01-.98,0-18.08-5.95-34.77-16-48.22l-9.88,30.41ZM103.75,322.79c0,.33,0,.65.01.98l25.87-18.79-9.88-30.41c-10.05,13.45-16,30.14-16,48.22M155.21,313.29l11.17,34.37h36.14l11.17-34.37-29.24-21.24-29.24,21.24ZM218.33,369.42l-9.89,30.44c17.09-5.31,31.74-16.16,41.87-30.44h-31.98ZM118.59,369.42c10.13,14.28,24.78,25.12,41.87,30.44l-9.89-30.44h-31.98Z" style="fill:url(#ae);"/><path d="M121.89,271.83l10.58,32.56,20.8,6.76,29.74-21.61v-21.87l-14.2-10.32c-.35,0-.71,0-1.08,0-3.97,0-6.45-.32-8.84-1.22-1.41-.53-2.27-1.62-2.27-3.42,0-1.36.22-2.6.54-3.83l-1.86-1.35c-13.15,5.1-24.64,13.55-33.41,24.3M185.89,267.66v21.87l29.74,21.61,20.8-6.76,10.58-32.55c-4.84-5.93-10.49-11.14-16.78-15.49-2.55.33-5.31.56-8.09.56-3.24,0-6.83-.34-10.05-1.36-1.25-.4-2.69-1.71-2.69-3.63,0-.48.03-.94.08-1.38l-23.59,17.14ZM216.52,313.88l-11.36,34.97,12.85,17.69h34.24c7.61-11.76,12.01-25.3,12.76-39.29l-27.7-20.13-20.8,6.76ZM103.88,327.25c.75,13.99,5.15,27.53,12.76,39.29h34.24l12.85-17.69-11.36-34.97-20.8-6.76-27.7,20.13ZM166.07,350.54l-12.85,17.69,10.58,32.58c6.59,1.74,13.51,2.67,20.65,2.67s14.06-.93,20.65-2.67l10.59-32.58-12.85-17.69h-36.76Z" style="fill:url(#af);"/><path d="M79.36,447.54l-1.25,7.77-2.32-.37c.24-2.24.11-3.76-.39-4.56-.5-.81-1.79-1.38-3.88-1.71l-2.65-.42-.89,5.57.84.14c.82.13,1.39.04,1.72-.27.33-.32.62-1.16.88-2.52l2.29.37-1.45,9.04-2.29-.36.14-.87c.16-.99.11-1.7-.13-2.14-.25-.44-.76-.73-1.54-.85l-.87-.14-.74,4.64c-.12.77-.1,1.27.06,1.5.16.23.65.41,1.47.54l1.27.2-.37,2.32-10.58-1.69.37-2.32,1.07.17c.81.13,1.33.11,1.56-.05.23-.17.41-.64.53-1.41l1.73-10.83c.12-.77.1-1.28-.06-1.51-.17-.23-.66-.41-1.47-.54l-1.07-.17.37-2.32,17.65,2.83ZM90.54,451.15c-1.62-.2-2.98.31-4.07,1.53-1.09,1.23-1.79,3.02-2.08,5.39-.3,2.4-.06,4.32.72,5.77.78,1.45,2,2.27,3.66,2.48,1.63.2,2.99-.32,4.08-1.54,1.09-1.23,1.78-3.03,2.07-5.41.29-2.39.05-4.3-.72-5.74-.77-1.45-2-2.27-3.67-2.48M88.41,468.81c-3.17-.39-5.61-1.63-7.32-3.73-1.71-2.09-2.39-4.65-2.02-7.66.37-3.02,1.64-5.33,3.81-6.94,2.17-1.61,4.84-2.21,8.03-1.82,3.17.39,5.6,1.62,7.32,3.71,1.71,2.09,2.38,4.64,2.01,7.65-.37,3.01-1.64,5.32-3.82,6.94-2.18,1.62-4.84,2.24-8.01,1.85M112.95,453.82c-1.63-.13-2.96.44-4.01,1.7-1.04,1.27-1.66,3.09-1.85,5.47-.19,2.41.13,4.32.96,5.73.84,1.41,2.09,2.19,3.76,2.32,1.64.13,2.98-.44,4.01-1.71,1.04-1.27,1.65-3.1,1.85-5.49.19-2.4-.13-4.3-.96-5.71-.83-1.41-2.09-2.18-3.77-2.32M111.56,471.56c-3.18-.26-5.67-1.39-7.47-3.42-1.8-2.02-2.58-4.54-2.33-7.57.24-3.03,1.41-5.39,3.51-7.09,2.1-1.69,4.75-2.41,7.95-2.16,3.18.26,5.67,1.39,7.47,3.4,1.8,2.01,2.57,4.53,2.33,7.56-.24,3.02-1.42,5.39-3.52,7.1-2.11,1.71-4.75,2.44-7.93,2.18M131.56,455.72l-.32-.02c-1.45-.1-2.52.24-3.21,1.02-.69.78-1.1,2.12-1.23,4.02l-2.46-.17.51-7.63,18.4,1.22-.51,7.63-2.48-.16c.13-1.92-.1-3.3-.68-4.16-.58-.86-1.59-1.33-3.03-1.43l-.32-.02-.85,12.74c-.05.78.01,1.28.2,1.49.19.21.69.35,1.51.4l1.3.09-.15,2.34-10.92-.73.16-2.34,1.28.08c.83.06,1.35-.01,1.56-.2.21-.19.35-.67.4-1.45l.85-12.74ZM155.95,454.78c2.47.11,4.24.56,5.32,1.34,1.08.78,1.58,1.98,1.51,3.59-.05,1.09-.42,2-1.11,2.72-.69.73-1.68,1.24-2.96,1.54,1.52.32,2.65.92,3.42,1.81.76.88,1.11,2,1.05,3.35-.08,1.84-.77,3.14-2.06,3.9-1.29.76-3.4,1.07-6.34.93l-11.01-.5.11-2.35,1.09.05c.82.04,1.33-.04,1.54-.23.32-.29.33-.68.37-1.46l.5-10.95c.04-.78-.04-1.27-.23-1.48-.19-.21-.7-.33-1.52-.37l-1.09-.05.11-2.35,11.3.51ZM151.5,471.49l1.8.08c1.79.08,3.06-.11,3.79-.58.73-.47,1.12-1.3,1.17-2.51.05-1.15-.27-1.98-.96-2.49-.69-.52-1.95-.81-3.76-.89l-1.75-.08-.29,6.47ZM151.9,462.71l1.51.07c1.57.07,2.68-.1,3.33-.51.65-.42.99-1.17,1.04-2.25.05-1.01-.22-1.75-.79-2.2-.58-.45-1.63-.71-3.15-.78l-1.66-.07-.26,5.74ZM175.71,465.9l-2.04-6.26-2.22,6.19,4.26.07ZM184.09,472.24h.75s-.04,2.36-.04,2.36l-10.29-.16.04-2.35,1.03.02c.72.01,1.19-.05,1.41-.17.23-.13.34-.36.35-.71,0-.12-.02-.25-.05-.37-.05-.19-.1-.37-.16-.56l-.68-2.01-5.87-.09-.75,2.08c-.09.23-.15.43-.18.57s-.04.26-.04.35c0,.33.08.55.26.67.18.11.56.17,1.16.18l1.23.02-.04,2.35-8.65-.14.04-2.35h.95c.53.02.96-.1,1.28-.36.32-.26.63-.8.92-1.62l5.31-14.75,4.93.08,4.9,15c.28.85.54,1.39.79,1.62.25.23.72.34,1.4.35M196.26,455.22l.04,2.35-1.29.02c-.82.01-1.33.12-1.53.33-.2.2-.29.7-.28,1.48l.2,12.74,3.06-.05c1.96-.03,3.25-.42,3.87-1.17.62-.75.98-2.28,1.07-4.6l2.38-.04.13,8.04-18.09.29-.04-2.35,1.09-.02c.82-.01,1.33-.12,1.53-.33.2-.2.29-.7.28-1.48l-.17-10.96c-.01-.78-.12-1.27-.32-1.47-.2-.2-.72-.29-1.54-.28l-1.09.02-.04-2.35,10.73-.17ZM214.76,454.56l.1,2.35-1.28.06c-.82.03-1.33.16-1.52.36-.19.21-.27.7-.23,1.49l.56,12.73,3.05-.13c1.96-.08,3.24-.51,3.84-1.28.6-.77.92-2.31.94-4.62l2.38-.1.35,8.03-18.07.79-.1-2.35,1.09-.05c.82-.04,1.33-.16,1.52-.37.19-.21.27-.71.24-1.49l-.48-10.95c-.04-.78-.16-1.27-.37-1.46-.21-.19-.72-.27-1.54-.23l-1.09.05-.1-2.35,10.73-.47ZM248.65,464.43c.15,2.54-.39,4.55-1.65,6.03-1.25,1.48-3.1,2.31-5.55,2.49-3.16.23-5.75-.52-7.77-2.23-2.01-1.71-3.13-4.1-3.35-7.16-.21-2.93.54-5.42,2.26-7.47,1.72-2.05,3.98-3.18,6.78-3.38,1.02-.08,1.99,0,2.89.24.91.23,1.84.65,2.81,1.24l.4-1.58,2.31-.16.56,7.81-2.48.18c-.29-1.8-.9-3.16-1.85-4.06-.94-.9-2.16-1.29-3.65-1.19-1.63.12-2.86.88-3.7,2.29-.84,1.41-1.17,3.31-1,5.69.17,2.43.78,4.28,1.81,5.54,1.03,1.26,2.4,1.83,4.1,1.71,1.41-.1,2.52-.66,3.32-1.68.8-1.02,1.22-2.4,1.25-4.13l2.48-.18ZM259.9,451.32l.24,2.33-1.28.13c-.81.08-1.31.24-1.49.46-.18.22-.23.72-.15,1.5l1.31,12.67,3.04-.31c1.95-.2,3.2-.7,3.76-1.51.56-.8.78-2.36.67-4.67l2.36-.24.83,7.99-18,1.86-.24-2.34,1.08-.11c.82-.08,1.32-.24,1.49-.45.18-.22.23-.72.15-1.5l-1.13-10.9c-.08-.78-.23-1.26-.45-1.44-.22-.18-.74-.22-1.55-.14l-1.08.11-.24-2.34,10.68-1.1ZM287.16,447.89l.3,2.33-.91.12c-.74.09-1.19.25-1.35.47-.16.22-.19.72-.09,1.5l1.13,8.86c.28,2.21-.17,3.96-1.36,5.27-1.19,1.3-3.1,2.12-5.72,2.45-2.36.3-4.25-.03-5.67-.99-1.43-.96-2.27-2.48-2.54-4.57l-1.16-9.06c-.1-.78-.26-1.25-.49-1.42-.22-.17-.74-.21-1.56-.1l-.94.12-.3-2.33,10.51-1.35.3,2.33-1.27.16c-.82.1-1.32.27-1.49.49-.17.23-.2.72-.1,1.5l1.12,8.74c.18,1.44.58,2.43,1.2,2.97.61.54,1.54.73,2.76.57,1.48-.19,2.49-.6,3.02-1.22.54-.63.71-1.65.53-3.07l-1.15-8.94c-.1-.78-.26-1.25-.47-1.43-.21-.17-.69-.21-1.43-.12l-1.19.15-.3-2.33,8.61-1.1ZM299.57,445.86c2.44-.39,4.26-.31,5.48.23,1.21.55,1.95,1.61,2.2,3.21.17,1.08,0,2.04-.53,2.89-.53.86-1.39,1.55-2.59,2.1,1.55,0,2.79.37,3.71,1.08.93.71,1.5,1.73,1.71,3.07.29,1.82-.12,3.23-1.23,4.24-1.11,1-3.12,1.74-6.02,2.2l-10.88,1.74-.37-2.32,1.07-.17c.81-.13,1.3-.31,1.47-.54.17-.23.19-.73.07-1.51l-1.73-10.82c-.12-.78-.3-1.25-.53-1.41s-.75-.18-1.56-.05l-1.08.17-.37-2.32,11.17-1.79ZM298.6,463.12l1.79-.28c1.77-.29,2.97-.73,3.59-1.34.61-.61.83-1.51.64-2.69-.18-1.13-.66-1.88-1.44-2.24-.78-.36-2.07-.4-3.86-.11l-1.73.28,1.02,6.39ZM297.21,454.44l1.49-.24c1.56-.25,2.61-.64,3.16-1.18.55-.54.73-1.34.56-2.41-.16-1-.57-1.67-1.22-1.99-.65-.33-1.74-.36-3.25-.12l-1.65.26.91,5.68Z"/><path d="M116.82,186.05c1.12-.16,2.25-.03,3.31-.19,0,3.84-3.5,3.59-4.67,5.47-.46-.75-.78-1.7-.78-2.66,0-1.26.57-2.4,2.14-2.62M120.94,205.57c-8.17,9.07-17.56,16-28.89,20.76-.04.02-.08.03-.12.03-.06,0-.12-.06-.12-.13,0-.07.06-.12.09-.14,10.29-6.9,18.92-13.74,27.14-22.59.22-.24.58-.34.9-.34.76,0,1.39.51,1.39,1.31,0,.46-.14.84-.39,1.11M159.05,242.14c-.89.28-1.78.58-2.65.89.38-3.13.53-5.98.53-9.05,0-6.85-1.34-12.91-3.91-17.66,1.94,1.49,3.25,3.18,4.03,4.7,2.04,3.96,2.65,8.04,2.65,12.25,0,2.71-.19,6.54-.65,8.88M211.73,242.75c-.96-.33-1.92-.63-2.89-.93,1.24-5.72.35-12.9-3.91-18.05,1.6.68,3.45,2.29,4.58,3.73,2.1,2.68,2.68,6.33,2.68,10.27,0,1.63-.2,3.45-.46,4.97" style="fill:#fff;"/><path d="M96.71,340.09c0,4.84,3.15,7.27,3.15,11.54s-3.71,6.93-7.22,6.92c-9.39-.02-12.44-10.04-19.17-17.34-5.34,6.39-10.5,12.98-13.86,20.68,2.94,3.32,5.84,6.5,10.1,8.75,7.91-2.13,9.03-.43,17.65-2.24,6.63-1.39,8.97-5.48,14.22-5.48,4.21,0,6.04,4.46,7.37,8.12.76,2.08,2.55,3.14,4.55,3.14,1.35,0,2.25-.39,3.16-.87-8.31-11.12-13.93-24.36-15.94-38.75-2.37.29-4.02,2.5-4.02,5.52" style="fill:url(#ag);"/><path d="M25.67,226.73c1.78,2.92,3.58,5.38,4.7,7.74-2.52-1.48-4.55-3.87-6.29-6.47-7.07-10.55-9.88-23.59-14.85-34.7-1.17,3.21-1.7,6.89-1.62,9.96.44,17.93,19.15,38.85,32.52,48.16,15.08,10.51,6.7,35.6,24.06,44.86-2.36-.14-4.96-1.17-6.61-2.7-11.35-10.49-5.94-31.74-19.17-40.95-17.44-12.14-23.13-25.35-32.93-37-3.68,17.42,15.16,30.36,22.98,38.38-1.43-.32-3.1-1.18-4.81-2.22-6.81-4.14-10.36-10.3-19.12-19.58-.6,1.3-.66,2.92-.66,4.07,0,13.24,20.29,24.26,25.43,27.47-1.73-.04-3.87-.6-5.5-1.27-7.85-3.23-8.96-6.92-18.39-13.14-1.06,13.75,15.54,19.53,25.12,22.77-1.83.42-3.97.43-5.89-.05-7.97-2-8.78-4.46-17.52-8.24,1.27,13.32,17.83,14.87,26.86,17.48-1.68.66-3.94.77-6.06.52-7.08-.83-9.61-2.92-17.14-4.68,2.62,12.01,15.57,10.6,26.62,12.19-1.68.88-3.7,1.3-5.64,1.25-7.43-.21-9.14-1.17-16.37-1.5,3.25,10.03,15.09,6.87,24.79,6.44-1.1,1.06-2.77,1.76-5.31,2.19-5.28.9-8.25.66-14.1,1.46,5.29,7.93,15.68,3.23,22.58,2.25-1.19,1.38-2.87,2.42-4.57,2.74-4.52.85-7.72,1.51-12.63,2.74,4.73,5.74,13.9,2.74,21.24-.17-.74,1.5-2.15,2.48-3.93,3.27-2.84,1.27-5.57,1.84-9.24,3.57,2.6,3.65,10.79,3.36,14.77,1.58-10.16,19.56-21.68,38.77-39.36,60.29,12.88-2.82,24.41-2,35.89-.15-.91-9.29-3.09-15.39-3.09-23.27,0-4.61,1.5-8.23,4.18-10.5-1.47,2.93-1.96,5.75-1.96,9.2,0,9.32,5.61,28.25,3.24,38.49,2.35.55,4.69,1.17,7.01,1.84-1.22-4.08-1.39-8.55-1.39-12.61,0-33.81,43.63-50.93,43.63-92.89,0-12.58-6.71-21.71-18.03-26.28,3.32-.52,6.39-.14,8.72,1.02,1.27-1.99,2.84-3.56,4.96-4.62-1.85-.86-3.24-2.8-3.24-4.91,0-3.22,2.65-5.54,6.29-5.54,1.54,0,2.98.29,4.28.88-.88-4.21-5.79-5.88-10.83-6.51-.59-1.11-1.06-2.38-1.38-3.83-8.52.33-18,.93-25.47-2.49.49,2.07,2.79,4.4,5.28,6.28-7.68,4.15-12.28,13.08-11.91,19.53.5,8.78,4.86,16.55,11.06,22.6-2.98-1.05-5.03-2.58-6.56-4.64-8.56-11.51-4.83-18.91-12.5-27.58-15.35-17.36-26.32-47.09-30.32-75.65-7.16,13.51-1.7,36.74,8.19,52.93M77.21,239.6c3.83.12,7.57-.24,11.05,1.4-1.15,2.31-2.59,3.57-4.51,3.57-3.58,0-4.05-3.21-6.53-4.97" style="fill:url(#ah);"/><path d="M56.56,220.37c.4,1.63,1.21,4.03,1.61,6.55-1.8-2.04-2.62-3.95-3.27-5.92-4.72-14.1-4.33-29.85-6.95-40.33-5.09,14.47-2.47,30.26,3.83,46.15.71,1.78,1.74,3.94,2.54,6.27-2.04-1.82-3.26-3.95-4.05-5.46-5.37-10.31-7.28-23.57-10.03-33.19-4.74,10.17.31,26.92,7.69,39.5.97,1.66,2.17,3.8,3.13,5.73-2.06-1.25-3.46-3.03-4.45-4.54-4.19-6.43-8.53-18.78-12.58-26.17-2.43,14.27,5.38,26.61,13.75,37.15,2.58,3.25,4.83,5.94,6.24,9.37,1.21-7.35,5.46-12.76,10.3-16.24-2.79-1.99-4.72-5.98-5.26-9.58,2.57,1.39,5.47,2.45,8.17,2.96-10.21-22.93-6.79-45.21-7.9-60.03-7.6,9.17-7.14,29.94-2.78,47.78" style="fill:url(#ai);"/><path d="M296.65,228.98c4.33-.17,8.06-.74,12.4-2.14-.52,2.59-1.49,4.75-3.17,6.58,3.69-.15,7.29-.67,11.31-1.71-1.72,4.18-4.09,7.07-7.01,9.07,3.07,1.85,5.94,4.58,7.6,8.72.07-5.92.53-10.63,2.18-15,2.26-5.95,7.45-11.74,7.45-18.98,0-2.19-.16-4.38-.68-6.56-4.02,4.03-5.1,8.52-7.98,13.85-.84,1.55-1.97,3.28-3.46,4.79.54-2.18,1.37-4.12,2.04-5.63,3.19-7.12,5.11-12.57,5.11-19.9,0-2.75-.36-5.49-1.59-8.21-3.64,7.72-5.13,16.53-8.23,25.59-.52,1.52-1.38,3.29-2.9,5.24.3-2.29.78-4.27,1.19-5.83,1.99-7.61,4.87-15.33,4.62-25.31-.12-4.64-1.14-9.03-3.73-12.91-1.59,4.63-1.62,9.8-1.94,14.63-.59,8.83-2.13,14.73-3.53,21.9-.31,1.62-1.1,3.44-2.27,5.45.06-2.27.39-4.32.71-6.16,1.43-8.04,2.7-14.34,2.7-22.83,0-9.29-2.99-15.91-8.94-22.51,3.41,20.07,3.79,38.17-1.89,57.83" style="fill:url(#aj);"/><path d="M335.04,228.86c7.73-14.2,13.4-26.31,13.76-42.98.13-5.92-.95-9.41-3.18-15.22-12.05,26.98-4.2,37.74-10.58,58.2M341.96,220.78c-6.47,12.23-12.82,20.11-14.45,29.84-.7,4.15-.75,9.88-2.24,13.55-.8,1.97-2.43,4.4-4.64,6.06,1.28-2.67,2.61-5.48,3.11-8.04,1.37-7.08.97-14.17,3.81-20.47,4.07-9.02,7.25-16.28,7.57-26.12-5.25,5.41-10.91,12.83-13.45,20.74-4.11,12.8,1.64,25.8-8.06,35.21-1.49,1.45-3.36,2.83-5.78,3.53,6.2-5.48,9.27-11.08,9.27-18.77,0-6.82-4.39-12.56-11.52-15.3,3.31-1.75,5.78-3.42,7.59-6.49-4.86,1.09-8.49,1.05-12.69.96,2.24-1.56,3.99-3.37,5.37-5.84-4.6,1.2-9.17,1.27-14.55,1.27-8.85,0-17.32,3.46-21.74,9.25,8.9-.06,13.98,3.45,13.98,7.29,0,4.23-5.5,5.93-12.48,5.91,2.19,3.05,6.53,4.35,10.39,4.35,3.3,0,7.34.12,10.1,1.71-9.99,0-19.25,7.9-19.25,21.64,0,20.17,21.85,28.25,20.79,55.84,4.35-12.81,7.04-26.71,5.92-42.11,8.3,12.41,12.61,23.2,15.4,35.31,1.43-9.25,6.15-17.51,12.34-24.28-2.1,9.88-2.25,18.67-.9,27.64,1.87-7.45,6.35-13.42,15.99-19.95,5.16-3.49,8.56-8.71,10.04-14.88-6.76,3.7-11.08,7.03-15.61,10.41-1.58,1.18-3.53,2.36-6.15,3.43,1.77-2.26,3.7-3.68,5.09-4.95,8.59-7.89,23.5-12.98,23.47-28.07-8.85,6.92-14.02,12.5-22.42,18.78-1.68,1.26-4.21,3.26-6.98,4.82,1.99-2.52,3.9-4.49,5.78-6.28,7.28-6.92,28.13-20.74,28.29-35.36-11.06,9.82-17.79,18.55-29.88,28.54-1.7,1.4-3.77,3.26-6.3,4.88,1.47-2.5,3.54-4.87,4.9-6.24,10.81-10.87,33.6-28.49,32.16-43.8-10.76,11.1-22,26.5-33.49,36.69-1.72,1.53-3.59,3.16-6.23,4.95,1.73-2.59,3.45-4.6,5.16-6.42,10.51-11.15,35.36-35.14,35.38-52.4,0-1.37-.15-2.73-.46-4.06-11.76,16.41-23.11,34.39-36.85,49.44-1.49,1.63-3.49,3.74-5.97,5.58,1.44-2.71,2.82-4.73,4.36-6.67,12.54-15.72,35.96-42.58,37.61-63.31.23-2.91-.09-5.27-.66-7.73-9.1,16.77-18.46,36-29.02,51.93-1.03,1.55-2.31,3.36-3.87,5.05.73-2.35,1.44-4.15,2.28-5.85,7.51-15.04,25.84-40.14,25.84-58.15,0-3.46-.53-6.57-1.74-9.62-6.78,12.11-7.91,23.85-14.61,36.52M281.32,237.24c3.47-1.64,7.22-1.28,11.05-1.4-2.48,1.76-2.95,4.97-6.53,4.97-1.92,0-3.36-1.27-4.51-3.57" style="fill:url(#ak);"/></svg>